<svg width="143" height="43" viewBox="0 0 143 43" fill="none" xmlns="http://www.w3.org/2000/svg">
<g clip-path="url(#clip0_1447_8308)">
<path d="M139.224 1.54654H2.9118C1.62529 1.54654 0.582363 2.58824 0.582363 3.87324V39.9372C0.582363 41.2222 1.62529 42.2639 2.9118 42.2639H139.224C140.51 42.2639 141.553 41.2222 141.553 39.9372V3.87324C141.553 2.58824 140.51 1.54654 139.224 1.54654Z" stroke="white" stroke-width="1.41968"/>
<path d="M33.6633 20.9262C33.6364 17.7054 36.3046 16.1354 36.4288 16.0653C34.9165 13.8641 32.5723 13.562 31.7459 13.5404C29.7744 13.3354 27.8677 14.7166 26.8631 14.7166C25.8422 14.7166 24.2973 13.562 22.6284 13.5944C20.484 13.6267 18.4801 14.8676 17.3836 16.7883C15.115 20.7104 16.8057 26.4723 18.9824 29.6446C20.0681 31.1984 21.3374 32.9302 23.0011 32.8708C24.6268 32.806 25.2372 31.8349 27.1979 31.8349C29.1424 31.8349 29.7149 32.8708 31.411 32.833C33.1556 32.8061 34.2575 31.2739 35.3054 29.7093C36.5639 27.929 37.0662 26.1756 37.0878 26.0893C37.0446 26.0623 33.6958 24.7837 33.6633 20.9262ZM30.4604 11.4525C31.3353 10.3574 31.9349 8.87374 31.7675 7.36313C30.5036 7.41705 28.9155 8.2371 28.0081 9.30535C27.2033 10.2495 26.4795 11.7924 26.6686 13.2437C28.0837 13.3462 29.5475 12.5261 30.4604 11.4525Z" fill="white"/>
<path d="M57.2239 32.6389H54.95L53.7023 28.7329H49.3758L48.1875 32.6389H45.9729L50.2616 19.3348H52.9082L57.2239 32.6389ZM53.3296 27.0928L52.2007 23.6185C52.0819 23.2624 51.855 22.4261 51.5309 21.1097H51.4931C51.3635 21.6762 51.1474 22.5125 50.8611 23.6185L49.7539 27.0928H53.3296ZM68.2322 27.724C68.2322 29.3534 67.7891 30.6428 66.9033 31.5923C66.109 32.4339 65.1207 32.8547 63.9432 32.8547C62.6684 32.8547 61.7558 32.4015 61.1997 31.4952V36.5288H59.0659V26.1973C59.0659 25.1722 59.0391 24.1201 58.9849 23.0465H60.8642L60.9836 24.568H61.0209C61.7343 23.4242 62.8145 22.8469 64.2617 22.8469C65.3961 22.8469 66.3413 23.2948 67.0978 24.1903C67.8537 25.0859 68.2322 26.2674 68.2322 27.724ZM66.0606 27.805C66.0606 26.8717 65.8498 26.1002 65.4288 25.4959C64.9693 24.8647 64.3485 24.5518 63.5704 24.5518C63.0469 24.5518 62.5659 24.7298 62.139 25.0751C61.7127 25.4258 61.4314 25.8844 61.3021 26.4454C61.2427 26.6559 61.2101 26.877 61.2049 27.0928V28.6951C61.2049 29.3911 61.421 29.9791 61.8478 30.4647C62.2741 30.9449 62.8308 31.1876 63.5163 31.1876C64.3211 31.1876 64.9477 30.8747 65.3961 30.2597C65.8335 29.6339 66.0606 28.8192 66.0606 27.805ZM79.2831 27.724C79.2831 29.3534 78.8405 30.6428 77.9542 31.5923C77.1604 32.4339 76.1721 32.8547 74.9946 32.8547C73.7198 32.8547 72.8067 32.4015 72.2505 31.4952V36.5288H70.1168V26.1973C70.1168 25.1722 70.09 24.1201 70.0358 23.0465H71.9157L72.0345 24.568H72.0723C72.7851 23.4242 73.8654 22.8469 75.3132 22.8469C76.4476 22.8469 77.3928 23.2948 78.1487 24.1903C78.8999 25.0859 79.2831 26.2674 79.2831 27.724ZM77.1062 27.805C77.1062 26.8717 76.896 26.1002 76.4744 25.4959C76.0155 24.8647 75.3941 24.5518 74.6167 24.5518C74.0925 24.5518 73.6115 24.7298 73.1794 25.0751C72.7531 25.4258 72.4718 25.8844 72.3425 26.4454C72.2773 26.7098 72.24 26.9256 72.24 27.0928V28.6951C72.24 29.3911 72.4561 29.9791 72.8824 30.4647C73.3093 30.9449 73.8654 31.1876 74.5572 31.1876C75.3615 31.1876 75.9881 30.8747 76.4365 30.2597C76.8849 29.6339 77.1062 28.8192 77.1062 27.805ZM91.6361 28.911C91.6361 30.0439 91.2419 30.9665 90.4534 31.6732C89.5891 32.4501 88.3737 32.8385 86.8235 32.8385C85.3921 32.8385 84.2419 32.5634 83.3719 32.0077L83.8634 30.2328C84.798 30.7884 85.8294 31.0636 86.9475 31.0636C87.7524 31.0636 88.379 30.8802 88.8274 30.5186C89.2758 30.1572 89.5024 29.6717 89.5024 29.0674C89.5024 28.5279 89.3137 28.0747 88.9462 27.7025C88.5787 27.3356 87.9684 26.9903 87.11 26.6774C84.7765 25.8088 83.6095 24.5356 83.6095 22.8686C83.6095 21.7787 84.02 20.8832 84.8464 20.1872C85.6675 19.4912 86.7589 19.1406 88.1198 19.1406C89.33 19.1406 90.3398 19.351 91.1446 19.7718L90.61 21.509C89.8535 21.099 89.0056 20.8994 88.0494 20.8994C87.2987 20.8994 86.7047 21.0828 86.2831 21.4496C85.9267 21.7787 85.7485 22.178 85.7485 22.6528C85.7485 23.176 85.954 23.613 86.3646 23.9529C86.721 24.2659 87.3633 24.6111 88.298 24.978C89.443 25.4419 90.2856 25.976 90.8261 26.5965C91.3659 27.2169 91.6361 27.9884 91.6361 28.911ZM98.7118 24.6489H96.3567V29.3048C96.3567 30.4917 96.7725 31.0797 97.6047 31.0797C97.9879 31.0797 98.3012 31.0474 98.5551 30.9826L98.6145 32.6012C98.1935 32.7576 97.6426 32.8385 96.9566 32.8385C96.1139 32.8385 95.4547 32.5796 94.9795 32.0671C94.5042 31.5545 94.2666 30.6913 94.2666 29.4829V24.6489H92.8678V23.052H94.2666V21.2932L96.3626 20.662V23.052H98.717L98.7118 24.6489ZM109.304 27.7672C109.304 29.2401 108.883 30.454 108.04 31.3981C107.16 32.3745 105.988 32.8601 104.524 32.8601C103.114 32.8601 101.99 32.3908 101.153 31.4628C100.316 30.5295 99.9004 29.348 99.9004 27.9291C99.9004 26.44 100.333 25.2261 101.197 24.2766C102.061 23.3271 103.222 22.8577 104.686 22.8577C106.096 22.8577 107.23 23.3271 108.083 24.2604C108.893 25.1614 109.304 26.3321 109.304 27.7672ZM107.09 27.8158C107.09 26.9364 106.9 26.1811 106.517 25.5553C106.069 24.7945 105.431 24.4115 104.599 24.4115C103.746 24.4115 103.087 24.7945 102.644 25.5553C102.261 26.1864 102.071 26.9526 102.071 27.8589C102.071 28.7383 102.261 29.4936 102.644 30.1249C103.103 30.8855 103.752 31.2686 104.583 31.2686C105.399 31.2686 106.036 30.8802 106.501 30.1087C106.895 29.4559 107.09 28.6951 107.09 27.8158ZM116.245 24.924C116.023 24.8863 115.797 24.8647 115.569 24.8647C114.819 24.8647 114.241 25.1452 113.83 25.7117C113.474 26.2134 113.296 26.8447 113.296 27.6054V32.6389H111.162V26.0678C111.162 25.0589 111.146 24.0554 111.103 23.0465H112.961L113.036 24.8809H113.096C113.323 24.2496 113.674 23.7425 114.165 23.3595C114.608 23.025 115.154 22.8469 115.71 22.8469C115.91 22.8469 116.082 22.8631 116.245 22.8847V24.924ZM125.789 27.3896C125.794 27.7133 125.767 28.037 125.714 28.3553H119.308C119.329 29.3048 119.642 30.0277 120.236 30.5295C120.776 30.9772 121.473 31.1985 122.332 31.1985C123.283 31.1985 124.147 31.0474 124.925 30.7453L125.26 32.2235C124.352 32.6173 123.278 32.817 122.041 32.817C120.55 32.817 119.383 32.38 118.53 31.506C117.682 30.632 117.255 29.4559 117.255 27.983C117.255 26.5371 117.649 25.334 118.443 24.3738C119.27 23.3487 120.393 22.8362 121.803 22.8362C123.185 22.8362 124.233 23.3487 124.947 24.3738C125.503 25.1884 125.789 26.1918 125.789 27.3896ZM123.753 26.8393C123.769 26.2081 123.629 25.6632 123.337 25.1992C122.969 24.6057 122.397 24.309 121.635 24.309C120.939 24.309 120.372 24.6003 119.934 25.1776C119.577 25.6362 119.367 26.1918 119.302 26.8339L123.753 26.8393Z" fill="white"/>
<path d="M48.76 14.6358C48.1659 14.6358 47.6528 14.6089 47.226 14.5603V8.12404C47.8256 8.03231 48.4306 7.98374 49.0355 7.98915C51.4823 7.98915 52.6112 9.19223 52.6112 11.1506C52.6058 13.4111 51.2771 14.6358 48.76 14.6358ZM49.1219 8.8146C48.7925 8.8146 48.5116 8.83618 48.2793 8.8847V13.7726C48.4036 13.7942 48.6466 13.7996 48.9869 13.7996C50.5911 13.7996 51.5039 12.8878 51.5039 11.183C51.4985 9.65623 50.6721 8.8146 49.1219 8.8146ZM56.1221 14.6844C54.7448 14.6844 53.8481 13.6539 53.8481 12.2566C53.8481 10.7999 54.761 9.76413 56.1978 9.76413C57.5589 9.76413 58.4719 10.746 58.4719 12.1811C58.4719 13.6539 57.5319 14.6844 56.1221 14.6844ZM56.1599 10.5302C55.4037 10.5302 54.9176 11.2369 54.9176 12.2296C54.9176 13.2007 55.4145 13.9075 56.1491 13.9075C56.8891 13.9075 57.3806 13.1522 57.3806 12.208C57.386 11.2478 56.8999 10.5302 56.1599 10.5302ZM66.3361 9.86121L64.8615 14.5765H63.9001L63.2897 12.5317C63.1383 12.03 63.009 11.5229 62.9118 11.0104H62.8902C62.8145 11.5229 62.6684 12.0408 62.5117 12.5317L61.8635 14.5765H60.8916L59.5032 9.86121H60.5835L61.1181 12.1001C61.2427 12.6342 61.3505 13.136 61.4373 13.6162H61.4588C61.5345 13.2169 61.6638 12.726 61.8478 12.111L62.5175 9.86121H63.3707L64.0136 12.0624C64.1703 12.5965 64.2943 13.1198 64.3916 13.6162H64.4184C64.4888 13.1306 64.5913 12.6181 64.7375 12.0624L65.31 9.86121H66.3361ZM71.7753 14.5765H70.7276V11.8682C70.7276 11.032 70.4085 10.6165 69.7767 10.6165C69.1559 10.6165 68.729 11.1506 68.729 11.771V14.5765H67.6813V11.2099C67.6813 10.7946 67.6703 10.3468 67.6435 9.86121H68.5671L68.6154 10.5895H68.6422C68.9235 10.0878 69.496 9.76413 70.1389 9.76413C71.1271 9.76413 71.7806 10.5194 71.7806 11.7549L71.7753 14.5765ZM74.665 14.5765H73.6173V7.69778H74.665V14.5765ZM78.4946 14.6844C77.1173 14.6844 76.2205 13.6539 76.2205 12.2566C76.2205 10.7999 77.1336 9.76413 78.5703 9.76413C79.9313 9.76413 80.8444 10.746 80.8444 12.1811C80.8444 13.6539 79.8992 14.6844 78.4946 14.6844ZM78.5324 10.5302C77.776 10.5302 77.2903 11.2369 77.2903 12.2296C77.2903 13.2007 77.787 13.9075 78.5214 13.9075C79.2616 13.9075 79.7531 13.1522 79.7531 12.208C79.7531 11.2478 79.2726 10.5302 78.5324 10.5302ZM84.9815 14.5765L84.9058 14.0315H84.879C84.5605 14.4686 84.0905 14.6789 83.4965 14.6789C82.648 14.6789 82.0487 14.0855 82.0487 13.2925C82.0487 12.1271 83.0585 11.5283 84.8085 11.5283V11.442C84.8085 10.8215 84.4795 10.5086 83.8313 10.5086C83.3666 10.5086 82.956 10.6273 82.5996 10.8593L82.3888 10.1687C82.8268 9.89896 83.3719 9.75872 84.0095 9.75872C85.2407 9.75872 85.8673 10.4061 85.8673 11.7063V13.4435C85.8673 13.9183 85.8888 14.2905 85.9377 14.571L84.9815 14.5765ZM84.8359 12.2296C83.6689 12.2296 83.0859 12.5102 83.0859 13.1792C83.0859 13.6755 83.3882 13.9183 83.804 13.9183C84.3392 13.9183 84.8359 13.5136 84.8359 12.9579V12.2296ZM90.9501 14.5765L90.9018 13.8211H90.8744C90.5722 14.3931 90.0643 14.6844 89.3568 14.6844C88.2171 14.6844 87.3744 13.6863 87.3744 12.2782C87.3744 10.8053 88.2497 9.76413 89.443 9.76413C90.0754 9.76413 90.5232 9.97452 90.7719 10.4061H90.7935V7.69778H91.8411V13.3032C91.8411 13.7564 91.8522 14.188 91.879 14.571H90.9501V14.5765ZM90.7987 11.8034C90.7987 11.1452 90.3613 10.5788 89.6916 10.5788C88.9136 10.5788 88.4384 11.2693 88.4384 12.235C88.4384 13.1846 88.9299 13.8374 89.6701 13.8374C90.3287 13.8374 90.7987 13.2655 90.7987 12.5857V11.8034ZM98.5068 14.6844C97.1295 14.6844 96.2327 13.6539 96.2327 12.2566C96.2327 10.7999 97.1453 9.76413 98.5825 9.76413C99.9435 9.76413 100.856 10.746 100.856 12.1811C100.856 13.6539 99.9167 14.6844 98.5068 14.6844ZM98.5447 10.5302C97.7882 10.5302 97.3019 11.2369 97.3019 12.2296C97.3019 13.2007 97.7993 13.9075 98.5336 13.9075C99.2738 13.9075 99.7653 13.1522 99.7653 12.208C99.7705 11.2478 99.2843 10.5302 98.5447 10.5302ZM106.501 14.5765H105.453V11.8682C105.453 11.032 105.134 10.6165 104.502 10.6165C103.881 10.6165 103.455 11.1506 103.455 11.771V14.5765H102.406V11.2099C102.406 10.7946 102.396 10.3468 102.368 9.86121H103.292L103.341 10.5895H103.368C103.649 10.0878 104.222 9.76413 104.864 9.76413C105.853 9.76413 106.506 10.5194 106.506 11.7549V14.5765H106.501ZM113.555 10.6489H112.399V12.9364C112.399 13.519 112.599 13.8104 113.009 13.8104C113.193 13.8104 113.349 13.7888 113.474 13.7618L113.501 14.5549C113.296 14.6304 113.026 14.6736 112.686 14.6736C111.859 14.6736 111.362 14.2204 111.362 13.0227V10.6435H110.671V9.8558H111.362V8.9926L112.394 8.67971V9.8558H113.55L113.555 10.6489ZM119.113 14.5765H118.065V11.8898C118.065 11.0481 117.746 10.6219 117.114 10.6219C116.569 10.6219 116.067 10.9888 116.067 11.7387V14.5819H115.018V7.69778H116.067V10.5302H116.088C116.418 10.0177 116.898 9.76413 117.509 9.76413C118.508 9.76413 119.118 10.541 119.118 11.771L119.113 14.5765ZM124.8 12.4724H121.652C121.673 13.3626 122.262 13.8697 123.137 13.8697C123.601 13.8697 124.033 13.7942 124.411 13.6485L124.574 14.3768C124.125 14.571 123.601 14.6682 122.991 14.6682C121.516 14.6682 120.642 13.7348 120.642 12.2944C120.642 10.8485 121.538 9.76413 122.872 9.76413C124.077 9.76413 124.833 10.6543 124.833 12.0031C124.843 12.1541 124.833 12.3159 124.8 12.4724ZM123.839 11.7225C123.839 10.9941 123.472 10.4816 122.802 10.4816C122.197 10.4816 121.722 11.005 121.657 11.7225H123.839Z" fill="white"/>
</g>
<defs>
<clipPath id="clip0_1447_8308">
<rect width="142.678" height="41.8807" fill="white" transform="translate(0 0.964844)"/>
</clipPath>
</defs>
</svg>
