<svg width="143" height="42" viewBox="0 0 143 42" fill="none" xmlns="http://www.w3.org/2000/svg">
<g clip-path="url(#clip0_1447_8294)">
<path d="M139.545 0.685883H3.23355C1.94703 0.685883 0.904106 1.72758 0.904106 3.01259V39.0765C0.904106 40.3615 1.94703 41.4032 3.23355 41.4032H139.545C140.832 41.4032 141.875 40.3615 141.875 39.0765V3.01259C141.875 1.72758 140.832 0.685883 139.545 0.685883Z" stroke="white" stroke-width="1.41968"/>
<path d="M51.3461 11.072C51.3461 11.8734 51.1455 12.5747 50.6441 13.0755C50.0423 13.6766 49.3402 13.9771 48.4376 13.9771C47.5349 13.9771 46.8328 13.6766 46.2311 13.0755C45.6293 12.4744 45.3284 11.7732 45.3284 10.8716C45.3284 9.97003 45.6293 9.26882 46.2311 8.66771C46.8328 8.06667 47.5349 7.76611 48.4376 7.76611C48.8387 7.76611 49.2399 7.86628 49.6411 8.06667C50.0423 8.26699 50.3432 8.46738 50.5437 8.76788L50.0423 9.26876C49.6411 8.76788 49.1396 8.56755 48.4376 8.56755C47.8358 8.56755 47.234 8.76788 46.8328 9.26876C46.3313 9.66947 46.1308 10.2706 46.1308 10.9718C46.1308 11.6731 46.3313 12.2741 46.8328 12.6748C47.3343 13.0755 47.8358 13.376 48.4376 13.376C49.1396 13.376 49.6411 13.1757 50.1426 12.6748C50.4434 12.3743 50.6441 11.9736 50.6441 11.4727H48.4376V10.7715H51.3461C51.3461 10.7715 51.3461 10.8716 51.3461 11.072Z" fill="white" stroke="white" stroke-width="0.141968" stroke-miterlimit="10"/>
<path d="M55.9601 8.56755H53.2522V10.4709H55.7595V11.1722H53.2522V13.0755H55.9601V13.7767H52.4498V7.76611H55.9601V8.56755Z" fill="white" stroke="white" stroke-width="0.141968" stroke-miterlimit="10"/>
<path d="M59.27 13.7767H58.4674V8.46738H56.7623V7.76611H60.9746V8.46738H59.27V13.7767Z" fill="white" stroke="white" stroke-width="0.141968" stroke-miterlimit="10"/>
<path d="M63.8835 13.7767V7.76611H64.6854V13.7767H63.8835Z" fill="white" stroke="white" stroke-width="0.141968" stroke-miterlimit="10"/>
<path d="M68.0957 13.7767H67.2937V8.46738H65.5886V7.76611H69.7006V8.46738H67.9955V13.7767H68.0957Z" fill="white" stroke="white" stroke-width="0.141968" stroke-miterlimit="10"/>
<path d="M77.6236 13.0755C77.0221 13.6766 76.3197 13.9771 75.4171 13.9771C74.5144 13.9771 73.8127 13.6766 73.2105 13.0755C72.6089 12.4744 72.3079 11.7732 72.3079 10.8716C72.3079 9.97003 72.6089 9.26882 73.2105 8.66771C73.8127 8.06667 74.5144 7.76611 75.4171 7.76611C76.3197 7.76611 77.0221 8.06667 77.6236 8.66771C78.2252 9.26882 78.5263 9.97003 78.5263 10.8716C78.5263 11.6731 78.2252 12.4744 77.6236 13.0755ZM73.8127 12.5747C74.2139 12.9754 74.8155 13.2759 75.4171 13.2759C76.0192 13.2759 76.6208 13.0755 77.0221 12.5747C77.4233 12.1739 77.7238 11.5729 77.7238 10.8716C77.7238 10.1704 77.5235 9.56931 77.0221 9.16859C76.6208 8.76788 76.0192 8.46738 75.4171 8.46738C74.8155 8.46738 74.2139 8.66771 73.8127 9.16859C73.4114 9.56931 73.1104 10.1704 73.1104 10.8716C73.1104 11.4727 73.3113 12.0738 73.8127 12.5747Z" fill="white" stroke="white" stroke-width="0.141968" stroke-miterlimit="10"/>
<path d="M79.6299 13.7767V7.76611H80.5325L83.4408 12.4744V11.2723V7.76611H84.2433V13.7767H83.4408L80.3316 8.8681V10.0702V13.7767H79.6299Z" fill="white" stroke="white" stroke-width="0.141968" stroke-miterlimit="10"/>
<path d="M72.107 22.5923C69.7001 22.5923 67.7946 24.3955 67.7946 26.9C67.7946 29.3042 69.7001 31.2076 72.107 31.2076C74.5139 31.2076 76.4199 29.4044 76.4199 26.9C76.4199 24.3955 74.5139 22.5923 72.107 22.5923ZM72.107 29.4044C70.8031 29.4044 69.7001 28.3025 69.7001 26.7998C69.7001 25.2971 70.8031 24.1952 72.107 24.1952C73.4109 24.1952 74.5139 25.197 74.5139 26.7998C74.5139 28.4026 73.4109 29.4044 72.107 29.4044ZM62.7793 22.5923C60.3724 22.5923 58.4669 24.3955 58.4669 26.9C58.4669 29.3042 60.3724 31.2076 62.7793 31.2076C65.1868 31.2076 67.0923 29.4044 67.0923 26.9C67.0923 24.3955 65.1868 22.5923 62.7793 22.5923ZM62.7793 29.4044C61.476 29.4044 60.3724 28.3025 60.3724 26.7998C60.3724 25.2971 61.476 24.1952 62.7793 24.1952C64.0832 24.1952 65.1868 25.197 65.1868 26.7998C65.1868 28.4026 64.0832 29.4044 62.7793 29.4044ZM51.6468 23.8946V25.6978H55.9595C55.8592 26.6997 55.458 27.501 54.9565 28.0019C54.3548 28.603 53.3518 29.3042 51.6468 29.3042C48.9388 29.3042 46.9329 27.2005 46.9329 24.4957C46.9329 21.7909 49.0391 19.6872 51.6468 19.6872C53.0509 19.6872 54.1541 20.2882 54.9565 20.9895L56.2604 19.6872C55.1571 18.6854 53.7529 17.884 51.7471 17.884C48.1364 17.884 45.0273 20.8893 45.0273 24.4957C45.0273 28.1021 48.1364 31.1074 51.7471 31.1074C53.7529 31.1074 55.1571 30.5064 56.3606 29.2041C57.5642 28.0019 57.9653 26.2989 57.9653 24.9966C57.9653 24.5959 57.9653 24.1952 57.8651 23.8946H51.6468ZM97.1811 25.2971C96.7798 24.2954 95.7764 22.5923 93.5704 22.5923C91.3639 22.5923 89.5586 24.2954 89.5586 26.9C89.5586 29.3042 91.3639 31.2076 93.7708 31.2076C95.6763 31.2076 96.88 30.0055 97.2812 29.3042L95.8772 28.3025C95.3757 29.0037 94.7736 29.5046 93.7708 29.5046C92.7679 29.5046 92.1658 29.1039 91.6644 28.2023L97.3814 25.798L97.1811 25.2971ZM91.3639 26.6997C91.3639 25.0968 92.6678 24.1952 93.5704 24.1952C94.2722 24.1952 94.9745 24.5959 95.1748 25.0968L91.3639 26.6997ZM86.6497 30.8069H88.5551V18.2847H86.6497V30.8069ZM83.6412 23.4939C83.1392 22.993 82.3373 22.4922 81.3339 22.4922C79.2281 22.4922 77.2218 24.3955 77.2218 26.7998C77.2218 29.2041 79.1279 31.0073 81.3339 31.0073C82.3373 31.0073 83.1392 30.5064 83.5404 30.0055H83.6412V30.6065C83.6412 32.2093 82.7385 33.1109 81.3339 33.1109C80.2309 33.1109 79.4284 32.3096 79.2281 31.6083L77.6231 32.3096C78.1245 33.4115 79.3282 34.814 81.4346 34.814C83.6412 34.814 85.4465 33.5117 85.4465 30.4062V22.7927H83.6412V23.4939ZM81.4346 29.4044C80.1307 29.4044 79.0271 28.3025 79.0271 26.7998C79.0271 25.2971 80.1307 24.1952 81.4346 24.1952C82.7385 24.1952 83.7414 25.2971 83.7414 26.7998C83.7414 28.3025 82.7385 29.4044 81.4346 29.4044ZM105.907 18.2847H101.393V30.8069H103.299V26.0985H105.907C108.012 26.0985 110.019 24.5959 110.019 22.1917C110.019 19.7874 108.012 18.2847 105.907 18.2847ZM106.007 24.3955H103.299V20.0879H106.007C107.411 20.0879 108.213 21.2901 108.213 22.1917C108.113 23.1934 107.311 24.3955 106.007 24.3955ZM117.541 22.5923C116.136 22.5923 114.732 23.1934 114.231 24.4957L115.936 25.197C116.337 24.4957 116.939 24.2954 117.641 24.2954C118.644 24.2954 119.547 24.8965 119.647 25.8982V25.9984C119.346 25.798 118.544 25.4975 117.741 25.4975C115.936 25.4975 114.131 26.4993 114.131 28.3025C114.131 30.0055 115.635 31.1074 117.24 31.1074C118.544 31.1074 119.145 30.5064 119.647 29.9053H119.747V30.9071H121.552V26.0985C121.352 23.7945 119.647 22.5923 117.541 22.5923ZM117.34 29.4044C116.738 29.4044 115.836 29.1039 115.836 28.3025C115.836 27.3007 116.939 27.0001 117.841 27.0001C118.644 27.0001 119.045 27.2005 119.547 27.4009C119.346 28.603 118.343 29.4044 117.34 29.4044ZM127.871 22.7927L125.765 28.2023H125.665L123.458 22.7927H121.452L124.762 30.4062L122.856 34.6136H124.762L129.877 22.7927H127.871ZM111.021 30.8069H112.927V18.2847H111.021V30.8069Z" fill="white"/>
<path d="M13.7354 33.3113C13.3342 33.111 13.1337 32.6101 13.1337 32.1092C13.1337 32.009 13.1337 31.8086 13.1337 31.7085C13.1337 24.2954 13.1337 16.8822 13.1337 9.56925C13.1337 9.16853 13.2339 8.86803 13.3342 8.46732C13.4346 8.26693 13.6351 8.0666 13.8358 7.86627C18.1484 12.1739 22.3608 16.4815 26.5732 20.7891C22.2605 24.7962 18.0481 29.0037 13.7354 33.3113Z" fill="white"/>
<path d="M30.7854 16.3814C29.5819 17.5835 28.278 18.7856 27.0745 20.0879C23.0627 15.9807 18.9506 11.8734 14.9388 7.76612C14.9388 7.76612 14.9388 7.66595 15.039 7.66595C20.2544 10.5711 25.4697 13.4763 30.7854 16.3814Z" fill="white"/>
<path d="M14.9388 33.3115C18.9506 29.3044 23.0627 25.2974 27.0745 21.2903C28.1777 22.3922 29.3813 23.4942 30.6851 24.6963C25.4697 27.6014 20.2544 30.5066 15.039 33.3115H14.9388Z" fill="white"/>
<path d="M31.3876 24.2954C30.0837 23.0933 28.8802 21.8911 27.5764 20.689C28.8802 19.3867 30.1841 18.0844 31.4879 16.7821C31.889 16.9824 32.2902 17.1828 32.6914 17.4833C33.6944 18.0844 34.7976 18.5853 35.8006 19.1863C36.1015 19.2865 36.3021 19.4869 36.5026 19.7874C36.9038 20.2883 36.9038 20.7892 36.5026 21.2901C36.3021 21.4904 36.1015 21.6908 35.8006 21.791C34.3965 22.6926 32.892 23.494 31.3876 24.2954Z" fill="white"/>
</g>
<defs>
<clipPath id="clip0_1447_8294">
<rect width="142.678" height="41.8807" fill="white" transform="translate(0.321732 0.104248)"/>
</clipPath>
</defs>
</svg>
