<svg width="16" height="19" viewBox="0 0 16 19" fill="none" xmlns="http://www.w3.org/2000/svg">
<path fill-rule="evenodd" clip-rule="evenodd" d="M4.03614 1.04698C6.53312 -0.37187 9.60232 -0.347071 12.0759 1.11194C14.5251 2.60067 16.0137 5.25761 15.9998 8.11573C15.9428 10.9551 14.3466 13.6241 12.3514 15.6874C11.1998 16.8836 9.91156 17.9414 8.51296 18.8391C8.36892 18.9206 8.21114 18.9751 8.04741 19C7.88983 18.9934 7.73636 18.9479 7.60086 18.8675C5.46563 17.5186 3.59238 15.7969 2.07124 13.785C0.798387 12.1056 0.0752408 10.0767 1.32769e-06 7.97376C-0.00165106 5.11016 1.53916 2.46583 4.03614 1.04698ZM5.47893 9.15859C5.89895 10.1712 6.89038 10.8318 7.99029 10.8318C8.71086 10.8368 9.40353 10.5546 9.91395 10.0479C10.4244 9.54121 10.7102 8.8522 10.7076 8.13438C10.7114 7.0387 10.0518 6.04878 9.03676 5.62682C8.02168 5.20487 6.85136 5.43411 6.07225 6.20752C5.29313 6.98093 5.0589 8.14594 5.47893 9.15859Z" fill="#92909C"/>
</svg>
