<?xml version="1.0" standalone="no"?>
<!DOCTYPE svg PUBLIC "-//W3C//DTD SVG 20010904//EN"
 "http://www.w3.org/TR/2001/REC-SVG-20010904/DTD/svg10.dtd">
<svg version="1.0" xmlns="http://www.w3.org/2000/svg"
 width="64.000000pt" height="64.000000pt" viewBox="0 0 64.000000 64.000000"
 preserveAspectRatio="xMidYMid meet">

<g transform="translate(0.000000,64.000000) scale(0.100000,-0.100000)"
fill="#000000" stroke="none">
<path d="M273 620 c-22 -5 -59 -18 -81 -29 -45 -23 -129 -112 -138 -147 -13
-51 25 -54 46 -3 18 41 100 113 148 127 144 43 296 -34 337 -172 19 -62 19
-90 0 -152 -41 -138 -193 -215 -337 -172 -48 14 -130 86 -148 127 -13 32 -35
46 -46 30 -22 -36 76 -154 158 -189 105 -45 236 -24 322 51 137 120 137 338 0
458 -68 60 -175 89 -261 71z"/>
<path d="M294 439 c-3 -6 13 -31 37 -55 l43 -44 -185 -2 c-156 -3 -184 -5
-184 -18 0 -13 28 -15 184 -18 l185 -2 -43 -44 c-40 -41 -47 -66 -18 -66 7 0
42 29 77 65 l64 65 -64 65 c-64 65 -83 75 -96 54z"/>
</g>
</svg>
