<svg width="29" height="27" viewBox="0 0 29 27" fill="none" xmlns="http://www.w3.org/2000/svg">
<path d="M21.5194 9.16188C23.7371 13.003 23.3749 17.2651 24.9527 17.5532C25.1839 17.5588 25.3924 17.5118 25.574 17.407C26.6326 16.7958 26.1681 12.3242 23.6366 7.93951C21.1051 3.55478 17.4648 0.916775 16.4062 1.52796C16.2247 1.63278 16.0797 1.78989 15.9689 1.99287C15.4295 3.50334 19.3017 5.32074 21.5194 9.16188Z" fill="#9796A1"/>
<path d="M22.0484 8.85223C20.1498 5.56382 17.8464 3.78651 16.9124 3.1564C16.6433 2.97513 16.3031 3.1278 16.1092 3.32728C15.9152 3.52675 5.02962 17.2666 5.02962 17.2666C5.02962 17.2666 4.24486 18.352 4.58222 18.9363C4.91958 19.5207 6.25194 19.3837 6.25194 19.3837L23.9303 16.731C23.9303 16.731 24.4411 16.5864 24.407 16.0543C24.33 14.8686 23.8962 12.0528 22.0484 8.85223Z" fill="#E7E7E7"/>
<path d="M7.22816 17.4158C8.39686 16.7411 8.79805 15.2455 8.123 14.0762C8.04538 13.9418 7.95485 13.8205 7.85686 13.707L5.02908 17.274C5.02908 17.274 4.97667 17.3544 4.90612 17.4791C5.61736 17.837 6.48767 17.8433 7.22816 17.4158ZM12.7449 13.525C13.9141 12.85 14.3145 11.3541 13.6397 10.1854C13.2039 9.43066 12.4257 9.00201 11.6145 8.97075L9.1721 12.0478C9.22651 12.2471 9.29743 12.4433 9.40531 12.6302C10.0801 13.7989 11.5762 14.1998 12.7449 13.525Z" fill="#9796A1"/>
<path d="M16.6716 10.5453C17.3467 11.7146 18.8418 12.1153 20.0111 11.4402C21.1804 10.7651 21.5811 9.2699 20.906 8.1006C20.2309 6.9313 18.7357 6.53067 17.5664 7.20577C16.3971 7.88086 15.9965 9.37604 16.6716 10.5453Z" fill="#9796A1"/>
<path d="M21.0131 14.3986C20.3383 13.2299 18.8427 12.8288 17.6735 13.5038C16.5043 14.1789 16.1039 15.6747 16.7787 16.8434C16.9871 17.2044 17.2795 17.4823 17.6106 17.6877L20.7319 17.2194C21.3985 16.4535 21.5485 15.326 21.0131 14.3986ZM10.7107 16.1123C9.72198 16.6831 9.29146 17.8407 9.58808 18.8911L14.3662 18.1741C14.3577 17.7767 14.2633 17.3761 14.0503 17.0071C13.3755 15.8384 11.8794 15.4376 10.7107 16.1123ZM14.8413 7.37591C16.0105 6.70085 16.4112 5.20556 15.7361 4.03634C15.7095 3.99029 15.6739 3.953 15.6444 3.90931C15.0651 4.63192 14.0001 5.97022 12.7572 7.53468C13.4195 7.78463 14.1807 7.75729 14.8413 7.37591Z" fill="#9796A1"/>
</svg>
